<?xml version="1.0" encoding="utf-8"?>
<!DOCTYPE svg PUBLIC "-//W3C//DTD SVG 20010904//EN" "http://www.w3.org/TR/2001/REC-SVG-20010904/DTD/svg10.dtd">
<svg version="1.0" xmlns="http://www.w3.org/2000/svg" width="1026pt" height="1026pt" viewBox="0 0 1026 1026" preserveAspectRatio="xMidYMid meet">
<g fill="#974C03FF">
<path d="M 400.00 721.42 C 398.62 721.18 394.80 720.49 391.50 719.89 C 365.11 715.14 338.80 695.86 326.07 671.97 L 322.97 666.17 L 301.24 665.80 C 281.76 665.46 278.84 665.19 273.11 663.15 C 259.89 658.46 248.32 648.56 242.46 636.92 C 235.60 623.30 235.93 631.28 236.23 484.25 L 236.51 351.50 L 238.76 343.50 C 243.45 326.90 252.27 311.80 263.64 300.94 C 276.13 289.00 288.89 282.11 304.44 278.90 C 313.12 277.10 322.20 277.03 522.00 277.03 C 724.69 277.03 730.76 277.08 740.00 278.97 C 757.48 282.56 776.48 293.98 789.00 308.44 C 799.93 321.07 799.78 320.70 838.90 426.15 C 853.36 465.15 854.06 467.39 856.13 481.15 C 858.75 498.54 859.24 530.42 857.16 547.50 C 851.62 592.91 838.26 629.10 819.82 648.59 C 813.28 655.51 807.39 659.21 797.50 662.62 C 790.06 665.19 788.12 665.41 769.85 665.79 L 750.21 666.21 L 745.03 674.94 C 733.48 694.45 715.14 709.65 694.76 716.58 C 666.04 726.35 631.76 721.92 608.15 705.38 C 595.61 696.59 585.51 685.46 578.49 672.68 L 574.82 666.00 L 536.02 666.00 L 497.22 666.00 L 496.60 668.44 C 495.45 673.05 484.09 688.67 477.12 695.25 C 458.90 712.44 439.18 720.63 414.00 721.48 C 407.68 721.69 401.38 721.67 400.00 721.42ZM 435.19 700.30 C 445.18 696.83 455.97 690.40 464.22 683.01 C 471.12 676.83 480.50 663.07 483.56 654.64 L 485.78 648.50 L 536.20 648.50 L 586.62 648.50 L 591.70 659.00 C 597.96 671.92 601.94 677.18 611.82 685.62 C 637.92 707.91 677.00 710.33 705.57 691.42 C 718.05 683.17 728.19 670.93 734.41 656.64 L 737.75 648.95 L 760.12 648.56 C 783.44 648.15 788.93 647.44 796.79 643.78 C 813.61 635.95 828.46 607.02 836.45 566.50 C 840.36 546.71 841.29 534.25 840.71 509.83 C 840.07 483.44 838.49 474.23 831.61 456.84 C 829.09 450.47 821.45 430.01 814.63 411.38 C 788.71 340.60 786.90 336.00 782.09 328.97 C 770.32 311.74 757.11 301.81 739.14 296.68 L 731.50 294.50 L 527.50 294.20 C 314.64 293.89 314.36 293.90 301.50 298.15 C 279.02 305.59 261.11 325.90 255.53 350.29 C 254.42 355.15 254.06 367.77 253.88 408.50 C 253.75 438.07 253.25 461.31 252.72 462.38 C 250.84 466.17 250.63 479.57 252.36 484.87 C 253.81 489.30 254.00 497.33 254.00 554.40 C 254.00 617.34 254.05 619.06 256.08 624.49 C 258.76 631.66 263.26 637.47 269.34 641.65 C 277.74 647.42 281.73 648.11 310.10 648.72 L 335.70 649.28 L 337.39 653.98 C 339.57 660.02 345.85 670.76 350.60 676.56 C 355.92 683.06 367.87 692.36 375.74 696.13 C 379.46 697.91 386.32 700.42 391.00 701.70 C 398.38 703.72 401.27 703.98 413.00 703.68 C 424.91 703.37 427.52 702.97 435.19 700.30ZM 400.97 653.46 C 390.79 650.33 383.08 639.84 382.25 628.00 C 381.84 622.11 382.11 620.90 385.15 615.05 C 399.48 587.52 441.22 598.71 438.76 629.42 C 438.14 637.16 435.37 642.63 429.40 647.88 C 421.85 654.52 411.19 656.61 400.97 653.46ZM 652.38 653.23 C 640.56 649.00 633.98 639.44 634.02 626.60 C 634.05 619.57 636.15 614.18 641.03 608.62 C 649.19 599.33 663.72 596.66 675.27 602.33 C 685.24 607.23 692.05 619.34 690.63 629.68 C 689.77 635.93 686.39 643.24 682.68 646.82 C 675.40 653.86 662.05 656.68 652.38 653.23ZM 303.00 552.00 L 303.00 504.00 L 547.61 504.00 L 792.22 504.00 L 791.75 522.75 C 791.09 549.33 786.17 573.78 778.39 589.20 C 774.86 596.19 769.09 599.25 758.40 599.81 C 753.84 600.05 746.75 599.93 742.64 599.55 C 735.55 598.88 735.12 598.70 733.93 595.83 C 727.65 580.67 709.19 563.08 692.00 555.87 C 667.07 545.42 635.93 549.62 614.18 566.36 C 604.30 573.96 596.23 583.90 591.46 594.30 L 589.07 599.53 L 536.81 599.52 L 484.55 599.50 L 480.82 592.69 C 467.16 567.71 442.70 551.84 415.50 550.33 C 394.23 549.14 377.22 554.80 359.33 569.00 C 352.98 574.05 343.70 585.95 340.15 593.63 L 337.80 598.71 L 326.65 599.35 C 320.52 599.70 312.69 599.99 309.25 600.00 L 303.00 600.00 L 303.00 552.00ZM 303.00 407.97 C 303.00 370.77 303.28 360.26 304.35 357.72 C 306.33 353.00 310.72 348.18 315.09 345.96 C 318.75 344.09 321.29 344.00 372.46 344.00 L 426.00 344.00 L 426.00 399.50 L 426.00 455.00 L 364.50 455.00 L 303.00 455.00 L 303.00 407.97ZM 408.00 399.50 L 408.00 361.00 L 365.04 361.00 C 323.58 361.00 322.03 361.07 321.04 362.93 C 320.38 364.17 320.00 378.14 320.00 401.43 L 320.00 438.00 L 364.00 438.00 L 408.00 438.00 L 408.00 399.50ZM 475.00 399.50 L 475.00 344.00 L 544.50 344.00 L 614.00 344.00 L 614.00 399.50 L 614.00 455.00 L 544.50 455.00 L 475.00 455.00 L 475.00 399.50ZM 596.00 399.50 L 596.00 361.00 L 544.50 361.00 L 493.00 361.00 L 493.00 399.50 L 493.00 438.00 L 544.50 438.00 L 596.00 438.00 L 596.00 399.50ZM 663.00 399.50 L 663.00 344.00 L 694.75 344.01 L 726.50 344.02 L 731.69 346.99 C 738.75 351.04 741.55 355.10 746.01 367.73 C 752.13 385.07 772.53 440.95 776.13 450.25 L 777.97 455.00 L 720.49 455.00 L 663.00 455.00 L 663.00 399.50ZM 752.34 437.25 C 752.59 436.84 751.30 432.45 749.47 427.50 C 747.63 422.55 742.27 407.83 737.54 394.80 C 732.81 381.76 728.29 369.54 727.50 367.65 C 724.68 360.91 725.04 361.00 701.93 361.00 L 681.00 361.00 L 681.00 399.50 L 681.00 438.00 L 716.44 438.00 C 735.93 438.00 752.09 437.66 752.34 437.25Z"/></g>
<g fill="#FDCE03FF">
<path d="M 391.29 701.58 C 376.60 697.69 367.15 692.20 355.89 681.03 C 347.48 672.69 345.64 670.21 341.14 661.16 C 338.31 655.47 336.00 650.22 336.00 649.48 C 336.00 648.40 330.61 648.08 308.25 647.82 L 280.50 647.50 L 274.76 644.68 C 267.45 641.09 260.91 634.55 257.32 627.24 L 254.50 621.50 L 254.22 554.56 C 254.01 505.56 253.62 487.25 252.77 486.22 C 251.22 484.35 251.26 466.19 252.82 463.32 C 253.68 461.71 254.00 447.49 254.00 410.02 C 254.00 352.54 254.27 349.64 260.93 335.50 C 270.08 316.11 286.01 302.61 306.70 296.73 L 314.50 294.51 L 516.00 294.20 C 662.83 293.97 720.08 294.20 727.00 295.03 C 749.52 297.74 766.82 307.76 779.31 325.31 C 786.95 336.03 785.08 331.45 814.46 411.50 C 822.34 432.95 830.39 454.47 832.37 459.32 C 838.05 473.29 840.14 486.07 840.73 510.50 C 841.29 533.67 839.98 548.57 835.44 570.64 C 829.01 601.96 816.04 629.77 803.36 639.45 C 793.87 646.70 790.48 647.39 762.46 647.79 L 737.43 648.15 L 735.14 654.52 C 729.14 671.27 713.61 687.99 696.52 696.13 C 685.34 701.45 678.30 703.14 665.00 703.71 C 655.53 704.12 652.00 703.83 645.00 702.11 C 628.12 697.95 610.12 686.59 600.69 674.16 C 596.72 668.92 590.15 656.85 588.22 651.24 L 587.10 647.98 L 536.52 648.24 L 485.95 648.50 L 482.65 656.08 C 475.31 672.97 462.70 686.70 447.00 694.89 C 434.86 701.22 427.29 703.16 413.00 703.63 C 402.11 703.98 399.31 703.71 391.29 701.58ZM 423.69 652.17 C 428.83 649.53 434.24 644.10 436.63 639.18 C 437.64 637.10 438.59 632.42 438.81 628.42 C 439.33 619.10 436.69 612.70 429.77 606.48 C 415.52 593.67 393.16 597.99 384.58 615.21 C 377.24 629.95 385.65 648.77 401.99 654.12 C 406.61 655.64 419.15 654.51 423.69 652.17ZM 671.94 653.42 C 683.57 649.97 691.69 637.89 690.73 625.48 C 689.92 614.98 684.47 606.81 675.00 601.88 C 668.54 598.51 656.51 598.51 649.68 601.87 C 644.02 604.66 638.89 609.65 636.37 614.82 C 633.63 620.44 633.30 632.63 635.74 638.13 C 641.88 651.93 656.36 658.05 671.94 653.42ZM 339.02 596.44 C 340.90 590.73 349.28 579.00 356.16 572.45 C 378.86 550.79 411.56 544.36 440.04 555.95 C 455.52 562.25 471.71 576.76 480.00 591.79 L 484.50 599.94 L 536.69 599.97 L 588.87 600.00 L 591.96 593.75 C 601.93 573.58 620.23 558.77 642.50 552.85 C 654.04 549.78 671.57 549.79 682.50 552.87 C 703.60 558.82 723.17 574.75 732.12 593.25 L 735.45 600.13 L 751.64 599.81 C 767.78 599.50 767.85 599.49 772.17 596.50 C 777.44 592.85 780.64 586.71 784.97 571.93 C 790.23 553.98 793.95 523.74 792.54 510.51 L 791.84 504.00 L 546.92 504.00 L 302.00 504.00 L 302.00 551.33 C 302.00 577.37 302.30 598.97 302.67 599.33 C 303.03 599.70 311.10 600.00 320.59 600.00 L 337.84 600.00 L 339.02 596.44ZM 426.00 399.50 L 426.00 344.00 L 389.75 343.86 C 317.00 343.58 319.43 343.51 314.17 346.21 C 308.88 348.91 303.70 356.35 302.64 362.73 C 302.30 364.80 302.02 386.41 302.01 410.75 L 302.00 455.00 L 364.00 455.00 L 426.00 455.00 L 426.00 399.50ZM 614.00 399.25 L 614.00 343.50 L 544.75 343.72 L 475.50 343.95 L 475.24 399.47 L 474.98 455.00 L 544.49 455.00 L 614.00 455.00 L 614.00 399.25ZM 777.54 453.25 C 774.35 445.00 763.09 414.49 760.29 406.50 C 755.12 391.76 744.16 362.07 742.29 357.71 C 740.43 353.38 734.26 347.42 729.63 345.49 C 727.31 344.52 718.12 344.08 694.99 343.84 L 663.50 343.50 L 663.24 399.25 L 662.98 455.00 L 720.60 455.00 C 775.06 455.00 778.18 454.90 777.54 453.25Z"/></g>
<g fill="#BD8F58FF">
<path d="M 419.83 276.25 C 476.11 276.11 567.91 276.11 623.83 276.25 C 679.75 276.39 633.70 276.51 521.50 276.51 C 409.30 276.51 363.55 276.39 419.83 276.25Z"/></g>
</svg>
